<svg width="49" height="48" viewBox="0 0 49 48" fill="none" xmlns="http://www.w3.org/2000/svg">
<path d="M48.2973 24.1487C48.2973 10.808 37.4802 0 24.1487 0C10.808 0 0 10.808 0 24.1487C0 36.1989 8.82785 46.1904 20.3754 48V31.1306H14.2432V24.1502H20.3754V18.8269C20.3754 12.7762 23.9751 9.43458 29.4931 9.43458C32.1358 9.43458 34.9024 9.90548 34.9024 9.90548V15.8476H31.8521C28.8577 15.8476 27.9219 17.7115 27.9219 19.6208V24.1487H34.6186L33.5425 31.1291H27.9219V47.9985C39.4604 46.1889 48.2973 36.1973 48.2973 24.1472V24.1487Z" fill="white"/>
</svg>
